<?xml version="1.0" encoding="UTF-8" standalone="no"?>
<svg
   xmlns:dc="http://purl.org/dc/elements/1.1/"
   xmlns:cc="http://creativecommons.org/ns#"
   xmlns:rdf="http://www.w3.org/1999/02/22-rdf-syntax-ns#"
   xmlns:svg="http://www.w3.org/2000/svg"
   xmlns="http://www.w3.org/2000/svg"
   width="144.05821mm"
   height="50.603855mm"
   viewBox="0 0 144.05821 50.603855"
   version="1.1"
   id="svg4704">
  <defs
     id="defs4698">
    <clipPath
       clipPathUnits="userSpaceOnUse"
       id="clipPath18">
      <path
         d="M 0,841.89 H 595.276 V 0 H 0 Z"
         id="path16" />
    </clipPath>
  </defs>
  <metadata
     id="metadata4701">
    <rdf:RDF>
      <cc:Work
         rdf:about="">
        <dc:format>image/svg+xml</dc:format>
        <dc:type
           rdf:resource="http://purl.org/dc/dcmitype/StillImage" />
        <dc:title></dc:title>
      </cc:Work>
    </rdf:RDF>
  </metadata>
  <g
     id="layer1"
     transform="translate(24.588779,-125.61458)">
    <g
       transform="matrix(0.35277777,0,0,-0.35277777,-54.304485,377.18468)"
       id="g12">
      <g
         id="g14"
         clip-path="url(#clipPath18)">
        <g
           style="fill:#005293;fill-opacity:1"
           id="g20"
           transform="translate(227.6775,641.3901)">
          <path
             d="m 0,0 c 0,-39.611 -32.111,-71.722 -71.723,-71.722 -39.61,0 -71.721,32.111 -71.721,71.722 0,39.611 32.111,71.722 71.721,71.722 C -32.111,71.722 0,39.611 0,0"
             style="fill:#005293;fill-opacity:1;fill-rule:nonzero;stroke:none"
             id="path22" />
        </g>
        <g
           style="fill:#fecb00;fill-opacity:1"
           id="g4512">
          <g
             transform="translate(187.4744,677.1006)"
             id="g24"
             style="fill:#fecb00;fill-opacity:1">
            <path
               id="path26"
               style="fill:#fecb00;fill-opacity:1;fill-rule:nonzero;stroke:none"
               d="m 0,0 c -1.135,4.931 -4.053,9.215 -9.067,12.349 -5.011,3.133 -10.144,3.886 -15.076,2.747 -4.888,-1.067 -9.296,-4.745 -12.301,-9.545 l -13.781,-22.047 -2.033,-3.252 c -2.999,-4.8 -3.875,-9.655 -2.619,-14.562 0.325,-1.414 0.829,-2.746 1.474,-4.013 l 8.91,14.259 c 0.03,0.049 0.055,0.099 0.085,0.148 l 1.723,2.757 0.003,-0.002 13.739,21.976 c 1.896,3.036 4.422,5.19 7.263,5.966 2.886,0.849 5.516,0.18 8.198,-1.496 2.683,-1.679 4.428,-3.745 4.933,-6.712 0.615,-2.941 -0.175,-6.179 -2.075,-9.215 l -1.413,-2.261 -0.003,0.002 -14.049,-22.472 c -1.895,-3.036 -4.266,-4.941 -7.108,-5.718 -0.737,-0.217 -1.467,-0.348 -2.192,-0.4 l -4.701,-7.523 c 3.135,-0.975 6.254,-1.108 9.356,-0.391 4.888,1.067 8.832,4.001 11.838,8.801 l 14.399,23.039 1.413,2.26 C -0.085,-10.505 1.256,-4.907 0,0" />
          </g>
          <g
             transform="translate(179.3132,639.9888)"
             id="g28"
             style="fill:#fecb00;fill-opacity:1">
            <path
               id="path30"
               style="fill:#fecb00;fill-opacity:1;fill-rule:nonzero;stroke:none"
               d="m 0,0 c -0.325,1.415 -0.829,2.747 -1.474,4.014 l -8.91,-14.259 c -0.031,-0.049 -0.054,-0.099 -0.086,-0.149 l -1.722,-2.756 -0.003,0.002 -13.74,-21.977 c -1.896,-3.036 -4.421,-5.189 -7.262,-5.965 -2.886,-0.849 -5.517,-0.181 -8.199,1.496 -2.682,1.679 -4.427,3.745 -4.932,6.712 -0.616,2.94 0.175,6.179 2.075,9.215 l 1.413,2.261 0.003,-0.002 14.049,22.472 c 1.896,3.036 4.267,4.941 7.107,5.717 0.739,0.218 1.468,0.349 2.193,0.4 l 4.701,7.524 c -3.135,0.975 -6.254,1.108 -9.356,0.391 -4.888,-1.067 -8.833,-4.001 -11.836,-8.801 l -14.401,-23.039 -1.413,-2.26 c -2.999,-4.8 -4.341,-10.398 -3.085,-15.305 1.135,-4.931 4.054,-9.215 9.068,-12.349 5.011,-3.134 10.143,-3.886 15.075,-2.747 4.888,1.067 9.298,4.745 12.302,9.545 l 13.781,22.047 h -10e-4 l 2.033,3.252 C 0.38,-9.761 1.256,-4.906 0,0" />
          </g>
        </g>
      </g>
    </g>
    <g
       aria-label="sweden  connect "
       transform="matrix(0.35277777,0,0,0.35277777,33.672222,149.40426)"
       style="font-variant:normal;font-weight:500;font-stretch:normal;font-size:67.91529846px;font-family:'Lab Grotesque Medium';-inkscape-font-specification:LabGrotesque-Medium;writing-mode:lr-tb;fill:#000000;fill-opacity:1;fill-rule:nonzero;stroke:none"
       id="text36">
      <path
         d="m 16.639248,-35.180125 c -8.6252428,0 -13.7868055,4.550325 -13.7868055,10.458956 0,5.840716 3.1241038,8.081921 12.4964145,10.187295 5.093648,1.086645 8.896905,1.833713 8.896905,5.0936475 0,2.7845273 -2.920358,4.4144944 -6.723615,4.4144944 -4.074918,0 -6.92736,-1.0866448 -11.9530925,-5.2294779 l -4.3465791,4.8899014 c 5.5011391,4.82198621 9.9835486,6.3840381 16.1638406,6.3840381 8.828989,0 14.194298,-4.4824097 14.194298,-10.9343631 0,-6.1802924 -3.939088,-8.6252424 -13.107653,-10.6627014 -5.976546,-1.358306 -8.4894121,-1.833713 -8.4894121,-4.414495 0,-2.377035 2.5128661,-4.142833 6.5198691,-4.142833 3.59951,0 6.180292,0.814984 10.458955,4.074918 l 4.074918,-4.957817 c -4.75407,-3.803257 -8.761073,-5.161563 -14.398043,-5.161563 z"
         id="path4639" />
      <path
         d="m 76.065136,-34.09348 -3.056189,11.885177 c -1.494136,5.908631 -2.648696,11.138109 -3.531595,15.620519 -1.01873,-4.48241 -2.241205,-9.711888 -3.803257,-15.620519 L 62.414161,-34.09348 h -6.995276 l -3.192019,11.885177 C 50.73273,-16.367587 49.442339,-11.206024 48.423609,-6.7236145 47.54071,-11.206024 46.38615,-16.367587 44.892014,-22.208303 L 41.903741,-34.09348 H 34.025566 L 43.601623,0 h 8.896904 l 2.716612,-9.9835489 c 1.562052,-5.9086311 2.648697,-10.7306171 3.599511,-14.8055351 0.882899,4.074918 2.037459,8.896904 3.667426,14.8055351 L 65.266603,0 h 8.96482 l 9.508142,-34.09348 z"
         id="path4641" />
      <path
         d="m 114.23353,-10.391041 c -4.07492,3.6674265 -6.45195,5.0936477 -10.59478,5.0936477 -6.587789,0 -9.711892,-4.4824097 -10.255215,-10.0514637 h 24.992835 c 0.0679,-0.679153 0.13583,-2.17329 0.13583,-3.056189 0,-10.323125 -5.56906,-16.775079 -15.68844,-16.775079 -10.391039,0 -16.775077,7.674429 -16.775077,18.337131 0,10.7985324 6.655699,17.8617235 17.454227,17.8617235 5.50114,0 10.05147,-1.69788248 15.0772,-6.8594452 z m -11.61351,-18.880453 c 5.22947,0 8.28566,3.32785 8.55732,8.489413 H 93.587281 c 0.950814,-5.229478 4.007003,-8.489413 9.032739,-8.489413 z"
         id="path4643" />
      <path
         d="m 149.90265,-48.219862 v 18.133385 c -2.30912,-3.192019 -5.77281,-4.957817 -10.66271,-4.957817 -8.62524,0 -15.14511,7.063191 -15.14511,17.997554 0,10.9343631 6.38404,17.99755418 15.0772,17.99755418 5.29739,0 8.96482,-2.17328958 11.27394,-5.90863098 V 0 h 6.92736 v -48.219862 z m -9.23649,42.7866381 c -5.50113,0 -8.96481,-4.6182401 -8.96481,-11.6135161 0,-6.995276 3.66742,-11.545601 9.03273,-11.545601 5.36531,0 9.44023,4.210749 9.44023,11.545601 0,7.266937 -3.93909,11.6135161 -9.50815,11.6135161 z"
         id="path4645" />
      <path
         d="m 192.62138,-10.391041 c -4.07492,3.6674265 -6.45195,5.0936477 -10.59479,5.0936477 -6.58778,0 -9.71188,-4.4824097 -10.25521,-10.0514637 h 24.99283 c 0.0679,-0.679153 0.13583,-2.17329 0.13583,-3.056189 0,-10.323125 -5.56905,-16.775079 -15.68843,-16.775079 -10.39104,0 -16.77508,7.674429 -16.77508,18.337131 0,10.7985324 6.6557,17.8617235 17.45423,17.8617235 5.50114,0 10.05147,-1.69788248 15.0772,-6.8594452 z m -11.61352,-18.880453 c 5.22948,0 8.28567,3.32785 8.55733,8.489413 h -17.59006 c 0.95081,-5.229478 4.007,-8.489413 9.03273,-8.489413 z"
         id="path4647" />
      <path
         d="m 221.66875,-35.180125 c -4.68616,0 -8.35358,1.901629 -10.52687,5.229478 v -4.142833 h -6.92736 V 0 h 7.47068 v -20.849997 c 0,-4.61824 3.25993,-7.94609 7.67443,-7.94609 4.55032,0 7.06319,2.716612 7.06319,7.742344 V 0 h 7.47068 v -23.362863 c 0,-6.723614 -4.14283,-11.817262 -12.22475,-11.817262 z"
         id="path4649" />
      <path
         d="m 26.486966,24.856999 4.754071,-4.61824 C 26.826543,15.416773 22.68371,13.786806 17.18257,13.786806 c -10.0514638,0 -17.11465483,6.995276 -17.11465483,18.133384 0,11.070194 6.85944513,18.06547 17.04673983,18.06547 5.7728,0 9.983549,-1.765798 14.669705,-7.674429 l -4.957817,-4.142833 c -3.735342,4.074918 -6.180292,5.433224 -9.643973,5.433224 -6.316122,0 -9.5081414,-5.433224 -9.5081414,-11.681432 0,-6.248207 3.1920194,-11.817261 9.5081414,-11.817261 2.920358,0 5.433224,0.882898 9.304396,4.75407 z"
         id="path4651" />
      <path
         d="m 52.362696,13.786806 c -10.25521,0 -17.386317,7.334852 -17.386317,18.133384 0,10.730618 7.131107,18.06547 17.386317,18.06547 10.119379,0 17.318401,-7.334852 17.318401,-18.06547 0,-10.798532 -7.199022,-18.133384 -17.318401,-18.133384 z m 0,6.316123 c 5.840715,0 9.711887,4.686155 9.711887,11.817261 0,7.063192 -3.871172,11.749347 -9.711887,11.749347 -5.976546,0 -9.779803,-4.686155 -9.779803,-11.749347 0,-7.131106 3.803257,-11.817261 9.779803,-11.817261 z"
         id="path4653" />
      <path
         d="m 93.315623,13.786806 c -4.686156,0 -8.353582,1.901628 -10.526872,5.229478 v -4.142833 h -6.92736 V 48.96693 h 7.470683 V 28.116934 c 0,-4.618241 3.259934,-7.94609 7.674428,-7.94609 4.550325,0 7.063191,2.716612 7.063191,7.742344 V 48.96693 h 7.470687 V 25.604068 c 0,-6.723615 -4.14284,-11.817262 -12.224757,-11.817262 z"
         id="path4655" />
      <path
         d="m 131.34819,13.786806 c -4.68615,0 -8.35358,1.901628 -10.52687,5.229478 v -4.142833 h -6.92736 V 48.96693 h 7.47068 V 28.116934 c 0,-4.618241 3.25994,-7.94609 7.67443,-7.94609 4.55033,0 7.06319,2.716612 7.06319,7.742344 V 48.96693 h 7.47069 V 25.604068 c 0,-6.723615 -4.14284,-11.817262 -12.22476,-11.817262 z"
         id="path4657" />
      <path
         d="m 178.35916,38.57589 c -4.07492,3.667426 -6.45196,5.093647 -10.59479,5.093647 -6.58778,0 -9.71189,-4.48241 -10.25521,-10.051464 h 24.99283 c 0.0679,-0.679153 0.13583,-2.17329 0.13583,-3.056188 0,-10.323126 -5.56905,-16.775079 -15.68843,-16.775079 -10.39104,0 -16.77508,7.674429 -16.77508,18.33713 0,10.798533 6.6557,17.861724 17.45423,17.861724 5.50114,0 10.05146,-1.697883 15.0772,-6.859445 z M 166.74564,19.695437 c 5.22948,0 8.28567,3.327849 8.55733,8.489412 h -17.59006 c 0.95081,-5.229478 4.007,-8.489412 9.03273,-8.489412 z"
         id="path4659" />
      <path
         d="m 214.13694,24.856999 4.75407,-4.61824 c -4.41449,-4.821986 -8.55733,-6.451953 -14.05847,-6.451953 -10.05146,0 -17.11465,6.995276 -17.11465,18.133384 0,11.070194 6.85944,18.06547 17.04674,18.06547 5.7728,0 9.98355,-1.765798 14.6697,-7.674429 l -4.95781,-4.142833 c -3.73535,4.074918 -6.1803,5.433224 -9.64398,5.433224 -6.31612,0 -9.50814,-5.433224 -9.50814,-11.681432 0,-6.248207 3.19202,-11.817261 9.50814,-11.817261 2.92036,0 5.43323,0.882898 9.3044,4.75407 z"
         id="path4661" />
      <path
         d="m 242.25388,42.514977 c -2.24121,0.611238 -3.39577,0.747068 -4.55033,0.747068 -2.51287,0 -3.66743,-0.950814 -3.66743,-3.59951 V 20.51042 h 8.62525 v -5.636969 h -8.62525 V 6.8711723 h -7.47068 v 8.0022787 h -6.18029 v 5.636969 h 6.18029 v 20.035013 c 0,5.908631 2.51287,9.168566 9.3044,9.168566 2.10537,0 4.55032,-0.339577 7.33485,-1.290391 z"
         id="path4663" />
    </g>
  </g>
</svg>
