<svg width="343" height="59" viewBox="0 0 343 59" fill="none" xmlns="http://www.w3.org/2000/svg">
<path d="M79.17 51.142C79.17 51.982 79.0393 52.7147 78.778 53.34C78.5167 53.956 78.148 54.4693 77.672 54.88C77.196 55.2813 76.6267 55.5847 75.964 55.79C75.3013 55.986 74.5733 56.084 73.78 56.084C73.388 56.084 72.954 56.0653 72.478 56.028C72.0113 56 71.5867 55.9393 71.204 55.846V46.438C71.5867 46.3447 72.0113 46.284 72.478 46.256C72.954 46.2187 73.388 46.2 73.78 46.2C74.5733 46.2 75.3013 46.3027 75.964 46.508C76.6267 46.704 77.196 47.0073 77.672 47.418C78.148 47.8193 78.5167 48.3327 78.778 48.958C79.0393 49.574 79.17 50.302 79.17 51.142ZM73.892 54.894C75.18 54.894 76.1413 54.5673 76.776 53.914C77.4107 53.2513 77.728 52.3273 77.728 51.142C77.728 49.9567 77.4107 49.0373 76.776 48.384C76.1413 47.7213 75.18 47.39 73.892 47.39C73.5093 47.39 73.2107 47.3947 72.996 47.404C72.7907 47.4133 72.646 47.4227 72.562 47.432V54.852C72.646 54.8613 72.7907 54.8707 72.996 54.88C73.2107 54.8893 73.5093 54.894 73.892 54.894ZM81.1845 46.298H82.5425V56H81.1845V46.298ZM90.8662 51.226H92.2242V55.762C92.1122 55.7993 91.9489 55.8413 91.7342 55.888C91.5289 55.9347 91.2862 55.9813 91.0062 56.028C90.7356 56.0747 90.4369 56.112 90.1102 56.14C89.7836 56.1773 89.4522 56.196 89.1162 56.196C88.4349 56.196 87.8142 56.084 87.2542 55.86C86.6942 55.636 86.2136 55.3093 85.8122 54.88C85.4109 54.4507 85.0982 53.9233 84.8742 53.298C84.6596 52.6727 84.5522 51.954 84.5522 51.142C84.5522 50.33 84.6736 49.6113 84.9162 48.986C85.1682 48.3513 85.5042 47.8193 85.9242 47.39C86.3442 46.9607 86.8342 46.634 87.3942 46.41C87.9636 46.186 88.5702 46.074 89.2142 46.074C89.6529 46.074 90.0402 46.102 90.3762 46.158C90.7216 46.214 91.0156 46.2793 91.2582 46.354C91.5009 46.4287 91.6969 46.5033 91.8462 46.578C92.0049 46.6527 92.1122 46.7087 92.1682 46.746L91.7342 47.88C91.4636 47.7027 91.1042 47.558 90.6562 47.446C90.2082 47.3247 89.7509 47.264 89.2842 47.264C88.7896 47.264 88.3369 47.3527 87.9262 47.53C87.5249 47.7073 87.1796 47.964 86.8902 48.3C86.6102 48.636 86.3909 49.0467 86.2322 49.532C86.0736 50.008 85.9942 50.5447 85.9942 51.142C85.9942 51.7207 86.0596 52.248 86.1902 52.724C86.3302 53.2 86.5356 53.6107 86.8062 53.956C87.0862 54.292 87.4269 54.5533 87.8282 54.74C88.2389 54.9267 88.7196 55.02 89.2702 55.02C89.6622 55.02 89.9936 55.0013 90.2642 54.964C90.5442 54.9173 90.7449 54.8753 90.8662 54.838V51.226ZM100.272 51.226H101.63V55.762C101.518 55.7993 101.355 55.8413 101.14 55.888C100.935 55.9347 100.692 55.9813 100.412 56.028C100.142 56.0747 99.8432 56.112 99.5165 56.14C99.1898 56.1773 98.8585 56.196 98.5225 56.196C97.8412 56.196 97.2205 56.084 96.6605 55.86C96.1005 55.636 95.6198 55.3093 95.2185 54.88C94.8172 54.4507 94.5045 53.9233 94.2805 53.298C94.0658 52.6727 93.9585 51.954 93.9585 51.142C93.9585 50.33 94.0798 49.6113 94.3225 48.986C94.5745 48.3513 94.9105 47.8193 95.3305 47.39C95.7505 46.9607 96.2405 46.634 96.8005 46.41C97.3698 46.186 97.9765 46.074 98.6205 46.074C99.0592 46.074 99.4465 46.102 99.7825 46.158C100.128 46.214 100.422 46.2793 100.664 46.354C100.907 46.4287 101.103 46.5033 101.252 46.578C101.411 46.6527 101.518 46.7087 101.574 46.746L101.14 47.88C100.87 47.7027 100.51 47.558 100.062 47.446C99.6145 47.3247 99.1572 47.264 98.6905 47.264C98.1958 47.264 97.7432 47.3527 97.3325 47.53C96.9312 47.7073 96.5858 47.964 96.2965 48.3C96.0165 48.636 95.7972 49.0467 95.6385 49.532C95.4798 50.008 95.4005 50.5447 95.4005 51.142C95.4005 51.7207 95.4658 52.248 95.5965 52.724C95.7365 53.2 95.9418 53.6107 96.2125 53.956C96.4925 54.292 96.8332 54.5533 97.2345 54.74C97.6452 54.9267 98.1258 55.02 98.6765 55.02C99.0685 55.02 99.3998 55.0013 99.6705 54.964C99.9505 54.9173 100.151 54.8753 100.272 54.838V51.226ZM124.312 54.656C124.219 54.432 124.093 54.1473 123.934 53.802C123.785 53.4567 123.621 53.0833 123.444 52.682C123.267 52.2807 123.075 51.87 122.87 51.45C122.674 51.0207 122.487 50.6193 122.31 50.246C122.133 49.8633 121.965 49.5227 121.806 49.224C121.657 48.9253 121.535 48.6967 121.442 48.538C121.339 49.6393 121.255 50.834 121.19 52.122C121.125 53.4007 121.069 54.6933 121.022 56H119.692C119.729 55.16 119.771 54.3153 119.818 53.466C119.865 52.6073 119.916 51.7673 119.972 50.946C120.037 50.1153 120.103 49.308 120.168 48.524C120.243 47.74 120.322 46.998 120.406 46.298H121.596C121.848 46.7087 122.119 47.194 122.408 47.754C122.697 48.314 122.987 48.902 123.276 49.518C123.565 50.1247 123.845 50.736 124.116 51.352C124.387 51.9587 124.634 52.514 124.858 53.018C125.082 52.514 125.329 51.9587 125.6 51.352C125.871 50.736 126.151 50.1247 126.44 49.518C126.729 48.902 127.019 48.314 127.308 47.754C127.597 47.194 127.868 46.7087 128.12 46.298H129.31C129.627 49.4247 129.865 52.6587 130.024 56H128.694C128.647 54.6933 128.591 53.4007 128.526 52.122C128.461 50.834 128.377 49.6393 128.274 48.538C128.181 48.6967 128.055 48.9253 127.896 49.224C127.747 49.5227 127.583 49.8633 127.406 50.246C127.229 50.6193 127.037 51.0207 126.832 51.45C126.636 51.87 126.449 52.2807 126.272 52.682C126.095 53.0833 125.927 53.4567 125.768 53.802C125.619 54.1473 125.497 54.432 125.404 54.656H124.312ZM131.215 57.358C131.318 57.4047 131.449 57.4467 131.607 57.484C131.775 57.5307 131.939 57.554 132.097 57.554C132.611 57.554 133.012 57.4373 133.301 57.204C133.591 56.98 133.852 56.6113 134.085 56.098C133.497 54.978 132.947 53.7927 132.433 52.542C131.929 51.282 131.509 50.008 131.173 48.72H132.573C132.676 49.14 132.797 49.5927 132.937 50.078C133.087 50.5633 133.25 51.0627 133.427 51.576C133.605 52.0893 133.796 52.6027 134.001 53.116C134.207 53.6293 134.421 54.124 134.645 54.6C135 53.62 135.308 52.6493 135.569 51.688C135.831 50.7267 136.078 49.7373 136.311 48.72H137.655C137.319 50.092 136.946 51.4127 136.535 52.682C136.125 53.942 135.681 55.1227 135.205 56.224C135.019 56.644 134.823 57.0033 134.617 57.302C134.421 57.61 134.202 57.862 133.959 58.058C133.717 58.254 133.441 58.3987 133.133 58.492C132.835 58.5853 132.494 58.632 132.111 58.632C132.009 58.632 131.901 58.6227 131.789 58.604C131.677 58.5947 131.565 58.576 131.453 58.548C131.351 58.5293 131.253 58.506 131.159 58.478C131.075 58.45 131.015 58.4267 130.977 58.408L131.215 57.358ZM139.028 48.93C139.327 48.8553 139.724 48.776 140.218 48.692C140.713 48.608 141.282 48.566 141.926 48.566C142.505 48.566 142.986 48.65 143.368 48.818C143.751 48.9767 144.054 49.2053 144.278 49.504C144.512 49.7933 144.675 50.1433 144.768 50.554C144.862 50.9647 144.908 51.4173 144.908 51.912V56H143.606V52.192C143.606 51.744 143.574 51.3613 143.508 51.044C143.452 50.7267 143.354 50.47 143.214 50.274C143.074 50.078 142.888 49.938 142.654 49.854C142.421 49.7607 142.132 49.714 141.786 49.714C141.646 49.714 141.502 49.7187 141.352 49.728C141.203 49.7373 141.058 49.7513 140.918 49.77C140.788 49.7793 140.666 49.7933 140.554 49.812C140.452 49.8307 140.377 49.8447 140.33 49.854V56H139.028V48.93ZM151.771 50.26C151.613 50.1293 151.384 50.0033 151.085 49.882C150.787 49.7607 150.46 49.7 150.105 49.7C149.732 49.7 149.41 49.77 149.139 49.91C148.878 50.0407 148.663 50.2273 148.495 50.47C148.327 50.7033 148.206 50.9833 148.131 51.31C148.057 51.6367 148.019 51.9867 148.019 52.36C148.019 53.2093 148.229 53.8673 148.649 54.334C149.069 54.7913 149.629 55.02 150.329 55.02C150.684 55.02 150.978 55.006 151.211 54.978C151.454 54.9407 151.641 54.9033 151.771 54.866V50.26ZM151.771 45.36L153.073 45.136V55.79C152.775 55.874 152.392 55.958 151.925 56.042C151.459 56.126 150.922 56.168 150.315 56.168C149.755 56.168 149.251 56.0793 148.803 55.902C148.355 55.7247 147.973 55.4727 147.655 55.146C147.338 54.8193 147.091 54.4227 146.913 53.956C146.745 53.48 146.661 52.948 146.661 52.36C146.661 51.8 146.731 51.2867 146.871 50.82C147.021 50.3533 147.235 49.952 147.515 49.616C147.795 49.28 148.136 49.0187 148.537 48.832C148.948 48.6453 149.415 48.552 149.937 48.552C150.357 48.552 150.726 48.608 151.043 48.72C151.37 48.832 151.613 48.9393 151.771 49.042V45.36ZM156.613 56H155.311V48.72H156.613V56ZM155.955 47.404C155.722 47.404 155.521 47.3293 155.353 47.18C155.195 47.0213 155.115 46.8113 155.115 46.55C155.115 46.2887 155.195 46.0833 155.353 45.934C155.521 45.7753 155.722 45.696 155.955 45.696C156.189 45.696 156.385 45.7753 156.543 45.934C156.711 46.0833 156.795 46.2887 156.795 46.55C156.795 46.8113 156.711 47.0213 156.543 47.18C156.385 47.3293 156.189 47.404 155.955 47.404ZM163.416 55.272C163.304 55.3467 163.085 55.4447 162.758 55.566C162.441 55.678 162.068 55.734 161.638 55.734C161.2 55.734 160.784 55.664 160.392 55.524C160.01 55.384 159.674 55.1693 159.384 54.88C159.095 54.5813 158.866 54.2127 158.698 53.774C158.53 53.3353 158.446 52.8127 158.446 52.206C158.446 51.674 158.526 51.1887 158.684 50.75C158.843 50.302 159.072 49.9193 159.37 49.602C159.678 49.2753 160.052 49.0233 160.49 48.846C160.929 48.6593 161.424 48.566 161.974 48.566C162.581 48.566 163.108 48.6127 163.556 48.706C164.014 48.79 164.396 48.8693 164.704 48.944V55.44C164.704 56.56 164.415 57.372 163.836 57.876C163.258 58.38 162.38 58.632 161.204 58.632C160.747 58.632 160.313 58.5947 159.902 58.52C159.501 58.4453 159.151 58.3567 158.852 58.254L159.09 57.12C159.352 57.2227 159.669 57.3113 160.042 57.386C160.425 57.47 160.822 57.512 161.232 57.512C162.007 57.512 162.562 57.358 162.898 57.05C163.244 56.742 163.416 56.252 163.416 55.58V55.272ZM163.402 49.868C163.272 49.8307 163.094 49.798 162.87 49.77C162.656 49.7327 162.362 49.714 161.988 49.714C161.288 49.714 160.747 49.9427 160.364 50.4C159.991 50.8573 159.804 51.464 159.804 52.22C159.804 52.64 159.856 52.9993 159.958 53.298C160.07 53.5967 160.215 53.844 160.392 54.04C160.579 54.236 160.789 54.3807 161.022 54.474C161.265 54.5673 161.512 54.614 161.764 54.614C162.11 54.614 162.427 54.5673 162.716 54.474C163.006 54.3713 163.234 54.2547 163.402 54.124V49.868ZM166.946 56V45.36L168.248 45.136V48.86C168.491 48.7667 168.748 48.6967 169.018 48.65C169.298 48.594 169.574 48.566 169.844 48.566C170.423 48.566 170.904 48.65 171.286 48.818C171.669 48.9767 171.972 49.2053 172.196 49.504C172.43 49.7933 172.593 50.1433 172.686 50.554C172.78 50.9647 172.826 51.4173 172.826 51.912V56H171.524V52.192C171.524 51.744 171.492 51.3613 171.426 51.044C171.37 50.7267 171.272 50.47 171.132 50.274C170.992 50.078 170.806 49.938 170.572 49.854C170.339 49.7607 170.05 49.714 169.704 49.714C169.564 49.714 169.42 49.7233 169.27 49.742C169.121 49.7607 168.976 49.784 168.836 49.812C168.706 49.8307 168.584 49.854 168.472 49.882C168.37 49.91 168.295 49.9333 168.248 49.952V56H166.946ZM174.538 52.374C174.538 51.73 174.632 51.17 174.818 50.694C175.005 50.2087 175.252 49.8073 175.56 49.49C175.868 49.1727 176.223 48.9347 176.624 48.776C177.026 48.6173 177.436 48.538 177.856 48.538C178.836 48.538 179.588 48.846 180.11 49.462C180.633 50.0687 180.894 50.9973 180.894 52.248C180.894 52.304 180.894 52.3787 180.894 52.472C180.894 52.556 180.89 52.6353 180.88 52.71H175.896C175.952 53.466 176.172 54.04 176.554 54.432C176.937 54.824 177.534 55.02 178.346 55.02C178.804 55.02 179.186 54.9827 179.494 54.908C179.812 54.824 180.05 54.7447 180.208 54.67L180.39 55.762C180.232 55.846 179.952 55.9347 179.55 56.028C179.158 56.1213 178.71 56.168 178.206 56.168C177.572 56.168 177.021 56.0747 176.554 55.888C176.097 55.692 175.719 55.426 175.42 55.09C175.122 54.754 174.898 54.3573 174.748 53.9C174.608 53.4333 174.538 52.9247 174.538 52.374ZM179.536 51.66C179.546 51.072 179.396 50.5913 179.088 50.218C178.79 49.8353 178.374 49.644 177.842 49.644C177.544 49.644 177.278 49.7047 177.044 49.826C176.82 49.938 176.629 50.0873 176.47 50.274C176.312 50.4607 176.186 50.6753 176.092 50.918C176.008 51.1607 175.952 51.408 175.924 51.66H179.536ZM183.983 48.72H186.741V49.812H183.983V53.172C183.983 53.536 184.011 53.8393 184.067 54.082C184.123 54.3153 184.207 54.502 184.319 54.642C184.431 54.7727 184.571 54.866 184.739 54.922C184.907 54.978 185.103 55.006 185.327 55.006C185.719 55.006 186.031 54.964 186.265 54.88C186.507 54.7867 186.675 54.7213 186.769 54.684L187.021 55.762C186.89 55.8273 186.661 55.9067 186.335 56C186.008 56.1027 185.635 56.154 185.215 56.154C184.72 56.154 184.309 56.0933 183.983 55.972C183.665 55.8413 183.409 55.65 183.213 55.398C183.017 55.146 182.877 54.838 182.793 54.474C182.718 54.1007 182.681 53.6713 182.681 53.186V46.69L183.983 46.466V48.72ZM187.855 52.374C187.855 51.73 187.948 51.17 188.135 50.694C188.321 50.2087 188.569 49.8073 188.877 49.49C189.185 49.1727 189.539 48.9347 189.941 48.776C190.342 48.6173 190.753 48.538 191.173 48.538C192.153 48.538 192.904 48.846 193.427 49.462C193.949 50.0687 194.211 50.9973 194.211 52.248C194.211 52.304 194.211 52.3787 194.211 52.472C194.211 52.556 194.206 52.6353 194.197 52.71H189.213C189.269 53.466 189.488 54.04 189.871 54.432C190.253 54.824 190.851 55.02 191.663 55.02C192.12 55.02 192.503 54.9827 192.811 54.908C193.128 54.824 193.366 54.7447 193.525 54.67L193.707 55.762C193.548 55.846 193.268 55.9347 192.867 56.028C192.475 56.1213 192.027 56.168 191.523 56.168C190.888 56.168 190.337 56.0747 189.871 55.888C189.413 55.692 189.035 55.426 188.737 55.09C188.438 54.754 188.214 54.3573 188.065 53.9C187.925 53.4333 187.855 52.9247 187.855 52.374ZM192.853 51.66C192.862 51.072 192.713 50.5913 192.405 50.218C192.106 49.8353 191.691 49.644 191.159 49.644C190.86 49.644 190.594 49.7047 190.361 49.826C190.137 49.938 189.945 50.0873 189.787 50.274C189.628 50.4607 189.502 50.6753 189.409 50.918C189.325 51.1607 189.269 51.408 189.241 51.66H192.853ZM196.081 48.93C196.38 48.8553 196.776 48.776 197.271 48.692C197.766 48.608 198.335 48.566 198.979 48.566C199.558 48.566 200.038 48.65 200.421 48.818C200.804 48.9767 201.107 49.2053 201.331 49.504C201.564 49.7933 201.728 50.1433 201.821 50.554C201.914 50.9647 201.961 51.4173 201.961 51.912V56H200.659V52.192C200.659 51.744 200.626 51.3613 200.561 51.044C200.505 50.7267 200.407 50.47 200.267 50.274C200.127 50.078 199.94 49.938 199.707 49.854C199.474 49.7607 199.184 49.714 198.839 49.714C198.699 49.714 198.554 49.7187 198.405 49.728C198.256 49.7373 198.111 49.7513 197.971 49.77C197.84 49.7793 197.719 49.7933 197.607 49.812C197.504 49.8307 197.43 49.8447 197.383 49.854V56H196.081V48.93ZM210.202 45.136C210.585 45.136 210.912 45.164 211.182 45.22C211.462 45.276 211.658 45.3273 211.77 45.374L211.532 46.494C211.42 46.438 211.262 46.3867 211.056 46.34C210.851 46.284 210.599 46.256 210.3 46.256C209.694 46.256 209.269 46.424 209.026 46.76C208.784 47.0867 208.662 47.53 208.662 48.09V48.72H211.462V49.812H208.662V56H207.36V48.062C207.36 47.1287 207.589 46.41 208.046 45.906C208.504 45.3927 209.222 45.136 210.202 45.136ZM219.187 52.36C219.187 52.9387 219.103 53.4613 218.935 53.928C218.767 54.3947 218.529 54.796 218.221 55.132C217.922 55.468 217.563 55.7293 217.143 55.916C216.723 56.0933 216.265 56.182 215.771 56.182C215.276 56.182 214.819 56.0933 214.399 55.916C213.979 55.7293 213.615 55.468 213.307 55.132C213.008 54.796 212.775 54.3947 212.607 53.928C212.439 53.4613 212.355 52.9387 212.355 52.36C212.355 51.7907 212.439 51.2727 212.607 50.806C212.775 50.33 213.008 49.924 213.307 49.588C213.615 49.252 213.979 48.9953 214.399 48.818C214.819 48.6313 215.276 48.538 215.771 48.538C216.265 48.538 216.723 48.6313 217.143 48.818C217.563 48.9953 217.922 49.252 218.221 49.588C218.529 49.924 218.767 50.33 218.935 50.806C219.103 51.2727 219.187 51.7907 219.187 52.36ZM217.829 52.36C217.829 51.5387 217.642 50.89 217.269 50.414C216.905 49.9287 216.405 49.686 215.771 49.686C215.136 49.686 214.632 49.9287 214.259 50.414C213.895 50.89 213.713 51.5387 213.713 52.36C213.713 53.1813 213.895 53.8347 214.259 54.32C214.632 54.796 215.136 55.034 215.771 55.034C216.405 55.034 216.905 54.796 217.269 54.32C217.642 53.8347 217.829 53.1813 217.829 52.36ZM214.441 47.376C214.226 47.376 214.035 47.3013 213.867 47.152C213.708 46.9933 213.629 46.7927 213.629 46.55C213.629 46.3073 213.708 46.1113 213.867 45.962C214.035 45.8033 214.226 45.724 214.441 45.724C214.655 45.724 214.842 45.8033 215.001 45.962C215.169 46.1113 215.253 46.3073 215.253 46.55C215.253 46.7927 215.169 46.9933 215.001 47.152C214.842 47.3013 214.655 47.376 214.441 47.376ZM217.101 47.376C216.886 47.376 216.695 47.3013 216.527 47.152C216.368 46.9933 216.289 46.7927 216.289 46.55C216.289 46.3073 216.368 46.1113 216.527 45.962C216.695 45.8033 216.886 45.724 217.101 45.724C217.315 45.724 217.502 45.8033 217.661 45.962C217.829 46.1113 217.913 46.3073 217.913 46.55C217.913 46.7927 217.829 46.9933 217.661 47.152C217.502 47.3013 217.315 47.376 217.101 47.376ZM223.706 48.566C223.818 48.566 223.944 48.5753 224.084 48.594C224.234 48.6033 224.378 48.622 224.518 48.65C224.658 48.6687 224.784 48.692 224.896 48.72C225.018 48.7387 225.106 48.7573 225.162 48.776L224.938 49.91C224.836 49.8727 224.663 49.8307 224.42 49.784C224.187 49.728 223.884 49.7 223.51 49.7C223.268 49.7 223.025 49.728 222.782 49.784C222.549 49.8307 222.395 49.8633 222.32 49.882V56H221.018V49.028C221.326 48.916 221.709 48.8133 222.166 48.72C222.624 48.6173 223.137 48.566 223.706 48.566ZM234.363 50.26C234.204 50.1293 233.976 50.0033 233.677 49.882C233.378 49.7607 233.052 49.7 232.697 49.7C232.324 49.7 232.002 49.77 231.731 49.91C231.47 50.0407 231.255 50.2273 231.087 50.47C230.919 50.7033 230.798 50.9833 230.723 51.31C230.648 51.6367 230.611 51.9867 230.611 52.36C230.611 53.2093 230.821 53.8673 231.241 54.334C231.661 54.7913 232.221 55.02 232.921 55.02C233.276 55.02 233.57 55.006 233.803 54.978C234.046 54.9407 234.232 54.9033 234.363 54.866V50.26ZM234.363 45.36L235.665 45.136V55.79C235.366 55.874 234.984 55.958 234.517 56.042C234.05 56.126 233.514 56.168 232.907 56.168C232.347 56.168 231.843 56.0793 231.395 55.902C230.947 55.7247 230.564 55.4727 230.247 55.146C229.93 54.8193 229.682 54.4227 229.505 53.956C229.337 53.48 229.253 52.948 229.253 52.36C229.253 51.8 229.323 51.2867 229.463 50.82C229.612 50.3533 229.827 49.952 230.107 49.616C230.387 49.28 230.728 49.0187 231.129 48.832C231.54 48.6453 232.006 48.552 232.529 48.552C232.949 48.552 233.318 48.608 233.635 48.72C233.962 48.832 234.204 48.9393 234.363 49.042V45.36ZM239.205 56H237.903V48.72H239.205V56ZM238.547 47.404C238.314 47.404 238.113 47.3293 237.945 47.18C237.787 47.0213 237.707 46.8113 237.707 46.55C237.707 46.2887 237.787 46.0833 237.945 45.934C238.113 45.7753 238.314 45.696 238.547 45.696C238.781 45.696 238.977 45.7753 239.135 45.934C239.303 46.0833 239.387 46.2887 239.387 46.55C239.387 46.8113 239.303 47.0213 239.135 47.18C238.977 47.3293 238.781 47.404 238.547 47.404ZM246.008 55.272C245.896 55.3467 245.677 55.4447 245.35 55.566C245.033 55.678 244.66 55.734 244.23 55.734C243.792 55.734 243.376 55.664 242.984 55.524C242.602 55.384 242.266 55.1693 241.976 54.88C241.687 54.5813 241.458 54.2127 241.29 53.774C241.122 53.3353 241.038 52.8127 241.038 52.206C241.038 51.674 241.118 51.1887 241.276 50.75C241.435 50.302 241.664 49.9193 241.962 49.602C242.27 49.2753 242.644 49.0233 243.082 48.846C243.521 48.6593 244.016 48.566 244.566 48.566C245.173 48.566 245.7 48.6127 246.148 48.706C246.606 48.79 246.988 48.8693 247.296 48.944V55.44C247.296 56.56 247.007 57.372 246.428 57.876C245.85 58.38 244.972 58.632 243.796 58.632C243.339 58.632 242.905 58.5947 242.494 58.52C242.093 58.4453 241.743 58.3567 241.444 58.254L241.682 57.12C241.944 57.2227 242.261 57.3113 242.634 57.386C243.017 57.47 243.414 57.512 243.824 57.512C244.599 57.512 245.154 57.358 245.49 57.05C245.836 56.742 246.008 56.252 246.008 55.58V55.272ZM245.994 49.868C245.864 49.8307 245.686 49.798 245.462 49.77C245.248 49.7327 244.954 49.714 244.58 49.714C243.88 49.714 243.339 49.9427 242.956 50.4C242.583 50.8573 242.396 51.464 242.396 52.22C242.396 52.64 242.448 52.9993 242.55 53.298C242.662 53.5967 242.807 53.844 242.984 54.04C243.171 54.236 243.381 54.3807 243.614 54.474C243.857 54.5673 244.104 54.614 244.356 54.614C244.702 54.614 245.019 54.5673 245.308 54.474C245.598 54.3713 245.826 54.2547 245.994 54.124V49.868ZM250.84 56H249.538V48.72H250.84V56ZM250.182 47.404C249.949 47.404 249.748 47.3293 249.58 47.18C249.421 47.0213 249.342 46.8113 249.342 46.55C249.342 46.2887 249.421 46.0833 249.58 45.934C249.748 45.7753 249.949 45.696 250.182 45.696C250.415 45.696 250.611 45.7753 250.77 45.934C250.938 46.0833 251.022 46.2887 251.022 46.55C251.022 46.8113 250.938 47.0213 250.77 47.18C250.611 47.3293 250.415 47.404 250.182 47.404ZM254.297 48.72H257.055V49.812H254.297V53.172C254.297 53.536 254.325 53.8393 254.381 54.082C254.437 54.3153 254.521 54.502 254.633 54.642C254.745 54.7727 254.885 54.866 255.053 54.922C255.221 54.978 255.417 55.006 255.641 55.006C256.033 55.006 256.346 54.964 256.579 54.88C256.822 54.7867 256.99 54.7213 257.083 54.684L257.335 55.762C257.204 55.8273 256.976 55.9067 256.649 56C256.322 56.1027 255.949 56.154 255.529 56.154C255.034 56.154 254.624 56.0933 254.297 55.972C253.98 55.8413 253.723 55.65 253.527 55.398C253.331 55.146 253.191 54.838 253.107 54.474C253.032 54.1007 252.995 53.6713 252.995 53.186V46.69L254.297 46.466V48.72ZM261.176 55.062C261.484 55.062 261.754 55.0573 261.988 55.048C262.23 55.0293 262.431 55.0013 262.59 54.964V52.794C262.496 52.7473 262.342 52.71 262.128 52.682C261.922 52.6447 261.67 52.626 261.372 52.626C261.176 52.626 260.966 52.64 260.742 52.668C260.527 52.696 260.326 52.7567 260.14 52.85C259.962 52.934 259.813 53.0553 259.692 53.214C259.57 53.3633 259.51 53.564 259.51 53.816C259.51 54.2827 259.659 54.6093 259.958 54.796C260.256 54.9733 260.662 55.062 261.176 55.062ZM261.064 48.538C261.586 48.538 262.025 48.608 262.38 48.748C262.744 48.8787 263.033 49.07 263.248 49.322C263.472 49.5647 263.63 49.8587 263.724 50.204C263.817 50.54 263.864 50.9133 263.864 51.324V55.874C263.752 55.8927 263.593 55.9207 263.388 55.958C263.192 55.986 262.968 56.014 262.716 56.042C262.464 56.07 262.188 56.0933 261.89 56.112C261.6 56.14 261.311 56.154 261.022 56.154C260.611 56.154 260.233 56.112 259.888 56.028C259.542 55.944 259.244 55.8133 258.992 55.636C258.74 55.4493 258.544 55.2067 258.404 54.908C258.264 54.6093 258.194 54.25 258.194 53.83C258.194 53.4287 258.273 53.0833 258.432 52.794C258.6 52.5047 258.824 52.2713 259.104 52.094C259.384 51.9167 259.71 51.786 260.084 51.702C260.457 51.618 260.849 51.576 261.26 51.576C261.39 51.576 261.526 51.5853 261.666 51.604C261.806 51.6133 261.936 51.632 262.058 51.66C262.188 51.6787 262.3 51.6973 262.394 51.716C262.487 51.7347 262.552 51.7487 262.59 51.758V51.394C262.59 51.1793 262.566 50.9693 262.52 50.764C262.473 50.5493 262.389 50.3627 262.268 50.204C262.146 50.036 261.978 49.9053 261.764 49.812C261.558 49.7093 261.288 49.658 260.952 49.658C260.522 49.658 260.144 49.6907 259.818 49.756C259.5 49.812 259.262 49.8727 259.104 49.938L258.95 48.86C259.118 48.7853 259.398 48.7153 259.79 48.65C260.182 48.5753 260.606 48.538 261.064 48.538ZM268.21 56.14C267.408 56.1213 266.838 55.9487 266.502 55.622C266.166 55.2953 265.998 54.7867 265.998 54.096V45.36L267.3 45.136V53.886C267.3 54.1007 267.319 54.278 267.356 54.418C267.394 54.558 267.454 54.67 267.538 54.754C267.622 54.838 267.734 54.9033 267.874 54.95C268.014 54.9873 268.187 55.02 268.392 55.048L268.21 56.14ZM275.937 45.136C276.319 45.136 276.646 45.164 276.917 45.22C277.197 45.276 277.393 45.3273 277.505 45.374L277.267 46.494C277.155 46.438 276.996 46.3867 276.791 46.34C276.585 46.284 276.333 46.256 276.035 46.256C275.428 46.256 275.003 46.424 274.761 46.76C274.518 47.0867 274.397 47.53 274.397 48.09V48.72H277.197V49.812H274.397V56H273.095V48.062C273.095 47.1287 273.323 46.41 273.781 45.906C274.238 45.3927 274.957 45.136 275.937 45.136ZM284.921 52.36C284.921 52.9387 284.837 53.4613 284.669 53.928C284.501 54.3947 284.263 54.796 283.955 55.132C283.656 55.468 283.297 55.7293 282.877 55.916C282.457 56.0933 282 56.182 281.505 56.182C281.01 56.182 280.553 56.0933 280.133 55.916C279.713 55.7293 279.349 55.468 279.041 55.132C278.742 54.796 278.509 54.3947 278.341 53.928C278.173 53.4613 278.089 52.9387 278.089 52.36C278.089 51.7907 278.173 51.2727 278.341 50.806C278.509 50.33 278.742 49.924 279.041 49.588C279.349 49.252 279.713 48.9953 280.133 48.818C280.553 48.6313 281.01 48.538 281.505 48.538C282 48.538 282.457 48.6313 282.877 48.818C283.297 48.9953 283.656 49.252 283.955 49.588C284.263 49.924 284.501 50.33 284.669 50.806C284.837 51.2727 284.921 51.7907 284.921 52.36ZM283.563 52.36C283.563 51.5387 283.376 50.89 283.003 50.414C282.639 49.9287 282.14 49.686 281.505 49.686C280.87 49.686 280.366 49.9287 279.993 50.414C279.629 50.89 279.447 51.5387 279.447 52.36C279.447 53.1813 279.629 53.8347 279.993 54.32C280.366 54.796 280.87 55.034 281.505 55.034C282.14 55.034 282.639 54.796 283.003 54.32C283.376 53.8347 283.563 53.1813 283.563 52.36ZM280.175 47.376C279.96 47.376 279.769 47.3013 279.601 47.152C279.442 46.9933 279.363 46.7927 279.363 46.55C279.363 46.3073 279.442 46.1113 279.601 45.962C279.769 45.8033 279.96 45.724 280.175 45.724C280.39 45.724 280.576 45.8033 280.735 45.962C280.903 46.1113 280.987 46.3073 280.987 46.55C280.987 46.7927 280.903 46.9933 280.735 47.152C280.576 47.3013 280.39 47.376 280.175 47.376ZM282.835 47.376C282.62 47.376 282.429 47.3013 282.261 47.152C282.102 46.9933 282.023 46.7927 282.023 46.55C282.023 46.3073 282.102 46.1113 282.261 45.962C282.429 45.8033 282.62 45.724 282.835 45.724C283.05 45.724 283.236 45.8033 283.395 45.962C283.563 46.1113 283.647 46.3073 283.647 46.55C283.647 46.7927 283.563 46.9933 283.395 47.152C283.236 47.3013 283.05 47.376 282.835 47.376ZM289.441 48.566C289.553 48.566 289.679 48.5753 289.819 48.594C289.968 48.6033 290.113 48.622 290.253 48.65C290.393 48.6687 290.519 48.692 290.631 48.72C290.752 48.7387 290.841 48.7573 290.897 48.776L290.673 49.91C290.57 49.8727 290.397 49.8307 290.155 49.784C289.921 49.728 289.618 49.7 289.245 49.7C289.002 49.7 288.759 49.728 288.517 49.784C288.283 49.8307 288.129 49.8633 288.055 49.882V56H286.753V49.028C287.061 48.916 287.443 48.8133 287.901 48.72C288.358 48.6173 288.871 48.566 289.441 48.566ZM298.138 48.72C297.774 50.0827 297.345 51.3893 296.85 52.64C296.365 53.8907 295.893 55.0107 295.436 56H294.26C293.803 55.0107 293.327 53.8907 292.832 52.64C292.347 51.3893 291.922 50.0827 291.558 48.72H292.958C293.07 49.1773 293.201 49.6673 293.35 50.19C293.509 50.7033 293.672 51.2167 293.84 51.73C294.017 52.234 294.195 52.724 294.372 53.2C294.549 53.676 294.717 54.1007 294.876 54.474C295.035 54.1007 295.203 53.676 295.38 53.2C295.557 52.724 295.73 52.234 295.898 51.73C296.075 51.2167 296.239 50.7033 296.388 50.19C296.547 49.6673 296.682 49.1773 296.794 48.72H298.138ZM301.945 55.062C302.253 55.062 302.524 55.0573 302.757 55.048C303 55.0293 303.201 55.0013 303.359 54.964V52.794C303.266 52.7473 303.112 52.71 302.897 52.682C302.692 52.6447 302.44 52.626 302.141 52.626C301.945 52.626 301.735 52.64 301.511 52.668C301.297 52.696 301.096 52.7567 300.909 52.85C300.732 52.934 300.583 53.0553 300.461 53.214C300.34 53.3633 300.279 53.564 300.279 53.816C300.279 54.2827 300.429 54.6093 300.727 54.796C301.026 54.9733 301.432 55.062 301.945 55.062ZM301.833 48.538C302.356 48.538 302.795 48.608 303.149 48.748C303.513 48.8787 303.803 49.07 304.017 49.322C304.241 49.5647 304.4 49.8587 304.493 50.204C304.587 50.54 304.633 50.9133 304.633 51.324V55.874C304.521 55.8927 304.363 55.9207 304.157 55.958C303.961 55.986 303.737 56.014 303.485 56.042C303.233 56.07 302.958 56.0933 302.659 56.112C302.37 56.14 302.081 56.154 301.791 56.154C301.381 56.154 301.003 56.112 300.657 56.028C300.312 55.944 300.013 55.8133 299.761 55.636C299.509 55.4493 299.313 55.2067 299.173 54.908C299.033 54.6093 298.963 54.25 298.963 53.83C298.963 53.4287 299.043 53.0833 299.201 52.794C299.369 52.5047 299.593 52.2713 299.873 52.094C300.153 51.9167 300.48 51.786 300.853 51.702C301.227 51.618 301.619 51.576 302.029 51.576C302.16 51.576 302.295 51.5853 302.435 51.604C302.575 51.6133 302.706 51.632 302.827 51.66C302.958 51.6787 303.07 51.6973 303.163 51.716C303.257 51.7347 303.322 51.7487 303.359 51.758V51.394C303.359 51.1793 303.336 50.9693 303.289 50.764C303.243 50.5493 303.159 50.3627 303.037 50.204C302.916 50.036 302.748 49.9053 302.533 49.812C302.328 49.7093 302.057 49.658 301.721 49.658C301.292 49.658 300.914 49.6907 300.587 49.756C300.27 49.812 300.032 49.8727 299.873 49.938L299.719 48.86C299.887 48.7853 300.167 48.7153 300.559 48.65C300.951 48.5753 301.376 48.538 301.833 48.538ZM308.98 56.14C308.177 56.1213 307.608 55.9487 307.272 55.622C306.936 55.2953 306.768 54.7867 306.768 54.096V45.36L308.07 45.136V53.886C308.07 54.1007 308.088 54.278 308.126 54.418C308.163 54.558 308.224 54.67 308.308 54.754C308.392 54.838 308.504 54.9033 308.644 54.95C308.784 54.9873 308.956 55.02 309.162 55.048L308.98 56.14ZM311.842 48.72H314.6V49.812H311.842V53.172C311.842 53.536 311.87 53.8393 311.926 54.082C311.982 54.3153 312.066 54.502 312.178 54.642C312.29 54.7727 312.43 54.866 312.598 54.922C312.766 54.978 312.962 55.006 313.186 55.006C313.578 55.006 313.891 54.964 314.124 54.88C314.367 54.7867 314.535 54.7213 314.628 54.684L314.88 55.762C314.749 55.8273 314.521 55.9067 314.194 56C313.867 56.1027 313.494 56.154 313.074 56.154C312.579 56.154 312.169 56.0933 311.842 55.972C311.525 55.8413 311.268 55.65 311.072 55.398C310.876 55.146 310.736 54.838 310.652 54.474C310.577 54.1007 310.54 53.6713 310.54 53.186V46.69L311.842 46.466V48.72ZM316.257 48.93C316.555 48.8553 316.952 48.776 317.447 48.692C317.941 48.608 318.511 48.566 319.155 48.566C319.733 48.566 320.214 48.65 320.597 48.818C320.979 48.9767 321.283 49.2053 321.507 49.504C321.74 49.7933 321.903 50.1433 321.997 50.554C322.09 50.9647 322.137 51.4173 322.137 51.912V56H320.835V52.192C320.835 51.744 320.802 51.3613 320.737 51.044C320.681 50.7267 320.583 50.47 320.443 50.274C320.303 50.078 320.116 49.938 319.883 49.854C319.649 49.7607 319.36 49.714 319.015 49.714C318.875 49.714 318.73 49.7187 318.581 49.728C318.431 49.7373 318.287 49.7513 318.147 49.77C318.016 49.7793 317.895 49.7933 317.783 49.812C317.68 49.8307 317.605 49.8447 317.559 49.854V56H316.257V48.93ZM325.598 56H324.296V48.72H325.598V56ZM324.94 47.404C324.706 47.404 324.506 47.3293 324.338 47.18C324.179 47.0213 324.1 46.8113 324.1 46.55C324.1 46.2887 324.179 46.0833 324.338 45.934C324.506 45.7753 324.706 45.696 324.94 45.696C325.173 45.696 325.369 45.7753 325.528 45.934C325.696 46.0833 325.78 46.2887 325.78 46.55C325.78 46.8113 325.696 47.0213 325.528 47.18C325.369 47.3293 325.173 47.404 324.94 47.404ZM327.837 48.93C328.135 48.8553 328.532 48.776 329.027 48.692C329.521 48.608 330.091 48.566 330.735 48.566C331.313 48.566 331.794 48.65 332.177 48.818C332.559 48.9767 332.863 49.2053 333.087 49.504C333.32 49.7933 333.483 50.1433 333.577 50.554C333.67 50.9647 333.717 51.4173 333.717 51.912V56H332.415V52.192C332.415 51.744 332.382 51.3613 332.317 51.044C332.261 50.7267 332.163 50.47 332.023 50.274C331.883 50.078 331.696 49.938 331.463 49.854C331.229 49.7607 330.94 49.714 330.595 49.714C330.455 49.714 330.31 49.7187 330.161 49.728C330.011 49.7373 329.867 49.7513 329.727 49.77C329.596 49.7793 329.475 49.7933 329.363 49.812C329.26 49.8307 329.185 49.8447 329.139 49.854V56H327.837V48.93ZM340.44 55.272C340.328 55.3467 340.109 55.4447 339.782 55.566C339.465 55.678 339.091 55.734 338.662 55.734C338.223 55.734 337.808 55.664 337.416 55.524C337.033 55.384 336.697 55.1693 336.408 54.88C336.119 54.5813 335.89 54.2127 335.722 53.774C335.554 53.3353 335.47 52.8127 335.47 52.206C335.47 51.674 335.549 51.1887 335.708 50.75C335.867 50.302 336.095 49.9193 336.394 49.602C336.702 49.2753 337.075 49.0233 337.514 48.846C337.953 48.6593 338.447 48.566 338.998 48.566C339.605 48.566 340.132 48.6127 340.58 48.706C341.037 48.79 341.42 48.8693 341.728 48.944V55.44C341.728 56.56 341.439 57.372 340.86 57.876C340.281 58.38 339.404 58.632 338.228 58.632C337.771 58.632 337.337 58.5947 336.926 58.52C336.525 58.4453 336.175 58.3567 335.876 58.254L336.114 57.12C336.375 57.2227 336.693 57.3113 337.066 57.386C337.449 57.47 337.845 57.512 338.256 57.512C339.031 57.512 339.586 57.358 339.922 57.05C340.267 56.742 340.44 56.252 340.44 55.58V55.272ZM340.426 49.868C340.295 49.8307 340.118 49.798 339.894 49.77C339.679 49.7327 339.385 49.714 339.012 49.714C338.312 49.714 337.771 49.9427 337.388 50.4C337.015 50.8573 336.828 51.464 336.828 52.22C336.828 52.64 336.879 52.9993 336.982 53.298C337.094 53.5967 337.239 53.844 337.416 54.04C337.603 54.236 337.813 54.3807 338.046 54.474C338.289 54.5673 338.536 54.614 338.788 54.614C339.133 54.614 339.451 54.5673 339.74 54.474C340.029 54.3713 340.258 54.2547 340.426 54.124V49.868Z" fill="#2B2A29"/>
<rect x="14" width="14" height="14" fill="#CD7A6E"/>
<rect x="28" y="14" width="14" height="14" fill="#695F59"/>
<rect x="42" y="14" width="14" height="14" fill="#B4AFAC"/>
<rect y="28" width="14" height="14" fill="#5A6751"/>
<rect x="14" y="28" width="14" height="14" fill="#ACB3A8"/>
<rect x="42" y="28" width="14" height="14" fill="#F4E0CE"/>
<rect x="28" y="42" width="14" height="14" fill="#D59151"/>
<rect x="107" y="51" width="8" height="1" fill="#2B2A29"/>
<path d="M76.532 30.668C77.148 30.668 77.652 30.6213 78.044 30.528C78.4547 30.416 78.7813 30.276 79.024 30.108C79.2667 29.9213 79.4347 29.7067 79.528 29.464C79.6213 29.2213 79.668 28.9507 79.668 28.652C79.668 28.0173 79.3693 27.4947 78.772 27.084C78.1747 26.6547 77.148 26.1973 75.692 25.712C75.0573 25.488 74.4227 25.236 73.788 24.956C73.1533 24.6573 72.584 24.2933 72.08 23.864C71.576 23.416 71.1653 22.884 70.848 22.268C70.5307 21.6333 70.372 20.868 70.372 19.972C70.372 19.076 70.54 18.2733 70.876 17.564C71.212 16.836 71.688 16.22 72.304 15.716C72.92 15.212 73.6667 14.8293 74.544 14.568C75.4213 14.288 76.4107 14.148 77.512 14.148C78.8187 14.148 79.948 14.288 80.9 14.568C81.852 14.848 82.636 15.156 83.252 15.492L81.992 18.936C81.4507 18.656 80.844 18.4133 80.172 18.208C79.5187 17.984 78.7253 17.872 77.792 17.872C76.7467 17.872 75.9907 18.0213 75.524 18.32C75.076 18.6 74.852 19.0387 74.852 19.636C74.852 19.9907 74.936 20.2893 75.104 20.532C75.272 20.7747 75.5053 20.9987 75.804 21.204C76.1213 21.3907 76.476 21.568 76.868 21.736C77.2787 21.8853 77.7267 22.044 78.212 22.212C79.22 22.5853 80.0973 22.9587 80.844 23.332C81.5907 23.6867 82.2067 24.1067 82.692 24.592C83.196 25.0773 83.5693 25.6467 83.812 26.3C84.0547 26.9533 84.176 27.7467 84.176 28.68C84.176 30.4907 83.5413 31.9 82.272 32.908C81.0027 33.8973 79.0893 34.392 76.532 34.392C75.6733 34.392 74.8987 34.336 74.208 34.224C73.5173 34.1307 72.9013 34.0093 72.36 33.86C71.8373 33.7107 71.38 33.552 70.988 33.384C70.6147 33.216 70.2973 33.0573 70.036 32.908L71.268 29.436C71.8467 29.7533 72.556 30.0427 73.396 30.304C74.2547 30.5467 75.3 30.668 76.532 30.668ZM95.0214 25.544C94.6481 26.9627 94.2467 28.372 93.8174 29.772C93.4067 31.172 92.9681 32.5813 92.5014 34H89.2534C88.9174 33.216 88.5534 32.2827 88.1614 31.2C87.7694 30.1173 87.3587 28.9413 86.9294 27.672C86.5187 26.384 86.0894 25.0307 85.6414 23.612C85.2121 22.1747 84.7921 20.728 84.3814 19.272H88.7774C88.9267 19.944 89.0854 20.6813 89.2534 21.484C89.4401 22.268 89.6267 23.08 89.8134 23.92C90.0187 24.76 90.2241 25.6093 90.4294 26.468C90.6534 27.308 90.8774 28.12 91.1014 28.904C91.3441 28.0827 91.5774 27.2427 91.8014 26.384C92.0441 25.5253 92.2681 24.6853 92.4734 23.864C92.6974 23.024 92.9027 22.2213 93.0894 21.456C93.2947 20.672 93.4721 19.944 93.6214 19.272H96.6454C96.7947 19.944 96.9627 20.672 97.1494 21.456C97.3361 22.2213 97.5321 23.024 97.7374 23.864C97.9427 24.6853 98.1574 25.5253 98.3814 26.384C98.6054 27.2427 98.8387 28.0827 99.0814 28.904C99.3054 28.12 99.5294 27.308 99.7534 26.468C99.9774 25.6093 100.183 24.76 100.369 23.92C100.575 23.08 100.761 22.268 100.929 21.484C101.116 20.6813 101.284 19.944 101.433 19.272H105.773C105.363 20.728 104.933 22.1747 104.485 23.612C104.056 25.0307 103.627 26.384 103.197 27.672C102.787 28.9413 102.376 30.1173 101.965 31.2C101.573 32.2827 101.209 33.216 100.873 34H97.6254C97.1587 32.5813 96.7014 31.172 96.2534 29.772C95.8054 28.372 95.3947 26.9627 95.0214 25.544ZM106.15 26.748C106.15 25.4413 106.346 24.3027 106.738 23.332C107.149 22.3427 107.681 21.5213 108.334 20.868C108.988 20.2147 109.734 19.72 110.574 19.384C111.433 19.048 112.31 18.88 113.206 18.88C115.297 18.88 116.949 19.524 118.162 20.812C119.376 22.0813 119.982 23.9573 119.982 26.44C119.982 26.6827 119.973 26.9533 119.954 27.252C119.936 27.532 119.917 27.784 119.898 28.008H110.434C110.528 28.8667 110.929 29.548 111.638 30.052C112.348 30.556 113.3 30.808 114.494 30.808C115.26 30.808 116.006 30.7427 116.734 30.612C117.481 30.4627 118.088 30.2853 118.554 30.08L119.114 33.468C118.89 33.58 118.592 33.692 118.218 33.804C117.845 33.916 117.425 34.0093 116.958 34.084C116.51 34.1773 116.025 34.252 115.502 34.308C114.98 34.364 114.457 34.392 113.934 34.392C112.609 34.392 111.452 34.196 110.462 33.804C109.492 33.412 108.68 32.88 108.026 32.208C107.392 31.5173 106.916 30.7053 106.598 29.772C106.3 28.8387 106.15 27.8307 106.15 26.748ZM115.95 25.152C115.932 24.7973 115.866 24.452 115.754 24.116C115.661 23.78 115.502 23.4813 115.278 23.22C115.073 22.9587 114.802 22.744 114.466 22.576C114.149 22.408 113.748 22.324 113.262 22.324C112.796 22.324 112.394 22.408 112.058 22.576C111.722 22.7253 111.442 22.9307 111.218 23.192C110.994 23.4533 110.817 23.7613 110.686 24.116C110.574 24.452 110.49 24.7973 110.434 25.152H115.95ZM125.918 26.524C125.918 27.812 126.207 28.848 126.786 29.632C127.365 30.416 128.223 30.808 129.362 30.808C129.735 30.808 130.081 30.7987 130.398 30.78C130.715 30.7427 130.977 30.7053 131.182 30.668V23.08C130.921 22.912 130.575 22.772 130.146 22.66C129.735 22.548 129.315 22.492 128.886 22.492C126.907 22.492 125.918 23.836 125.918 26.524ZM135.354 33.524C134.981 33.636 134.551 33.748 134.066 33.86C133.581 33.9533 133.067 34.0373 132.526 34.112C132.003 34.1867 131.462 34.2427 130.902 34.28C130.361 34.336 129.838 34.364 129.334 34.364C128.121 34.364 127.038 34.1867 126.086 33.832C125.134 33.4773 124.331 32.9733 123.678 32.32C123.025 31.648 122.521 30.8453 122.166 29.912C121.83 28.96 121.662 27.896 121.662 26.72C121.662 25.5253 121.811 24.452 122.11 23.5C122.409 22.5293 122.838 21.708 123.398 21.036C123.958 20.364 124.639 19.8507 125.442 19.496C126.263 19.1413 127.197 18.964 128.242 18.964C128.821 18.964 129.334 19.02 129.782 19.132C130.249 19.244 130.715 19.4027 131.182 19.608V12.944L135.354 12.272V33.524ZM137.72 26.748C137.72 25.4413 137.916 24.3027 138.308 23.332C138.719 22.3427 139.251 21.5213 139.904 20.868C140.558 20.2147 141.304 19.72 142.144 19.384C143.003 19.048 143.88 18.88 144.776 18.88C146.867 18.88 148.519 19.524 149.732 20.812C150.946 22.0813 151.552 23.9573 151.552 26.44C151.552 26.6827 151.543 26.9533 151.524 27.252C151.506 27.532 151.487 27.784 151.468 28.008H142.004C142.098 28.8667 142.499 29.548 143.208 30.052C143.918 30.556 144.87 30.808 146.064 30.808C146.83 30.808 147.576 30.7427 148.304 30.612C149.051 30.4627 149.658 30.2853 150.124 30.08L150.684 33.468C150.46 33.58 150.162 33.692 149.788 33.804C149.415 33.916 148.995 34.0093 148.528 34.084C148.08 34.1773 147.595 34.252 147.072 34.308C146.55 34.364 146.027 34.392 145.504 34.392C144.179 34.392 143.022 34.196 142.032 33.804C141.062 33.412 140.25 32.88 139.596 32.208C138.962 31.5173 138.486 30.7053 138.168 29.772C137.87 28.8387 137.72 27.8307 137.72 26.748ZM147.52 25.152C147.502 24.7973 147.436 24.452 147.324 24.116C147.231 23.78 147.072 23.4813 146.848 23.22C146.643 22.9587 146.372 22.744 146.036 22.576C145.719 22.408 145.318 22.324 144.832 22.324C144.366 22.324 143.964 22.408 143.628 22.576C143.292 22.7253 143.012 22.9307 142.788 23.192C142.564 23.4533 142.387 23.7613 142.256 24.116C142.144 24.452 142.06 24.7973 142.004 25.152H147.52ZM153.932 19.776C154.641 19.5707 155.556 19.384 156.676 19.216C157.796 19.0293 158.972 18.936 160.204 18.936C161.455 18.936 162.491 19.104 163.312 19.44C164.152 19.7573 164.815 20.2147 165.3 20.812C165.785 21.4093 166.131 22.1187 166.336 22.94C166.541 23.7613 166.644 24.676 166.644 25.684V34H162.472V26.188C162.472 24.844 162.295 23.892 161.94 23.332C161.585 22.772 160.923 22.492 159.952 22.492C159.653 22.492 159.336 22.5107 159 22.548C158.664 22.5667 158.365 22.5947 158.104 22.632V34H153.932V19.776ZM184.595 34.392C181.44 34.392 179.032 33.5147 177.371 31.76C175.728 30.0053 174.907 27.5133 174.907 24.284C174.907 22.6787 175.159 21.2507 175.663 20C176.167 18.7307 176.857 17.6667 177.735 16.808C178.612 15.9307 179.657 15.268 180.871 14.82C182.084 14.372 183.4 14.148 184.819 14.148C185.64 14.148 186.387 14.2133 187.059 14.344C187.731 14.456 188.319 14.596 188.823 14.764C189.327 14.9133 189.747 15.072 190.083 15.24C190.419 15.408 190.661 15.5387 190.811 15.632L189.551 19.16C188.953 18.8427 188.253 18.572 187.451 18.348C186.667 18.124 185.771 18.012 184.763 18.012C184.091 18.012 183.428 18.124 182.775 18.348C182.14 18.572 181.571 18.936 181.067 19.44C180.581 19.9253 180.189 20.56 179.891 21.344C179.592 22.128 179.443 23.08 179.443 24.2C179.443 25.096 179.536 25.936 179.723 26.72C179.928 27.4853 180.245 28.148 180.675 28.708C181.123 29.268 181.701 29.716 182.411 30.052C183.12 30.3693 183.979 30.528 184.987 30.528C185.621 30.528 186.191 30.4907 186.695 30.416C187.199 30.3413 187.647 30.2573 188.039 30.164C188.431 30.052 188.776 29.9307 189.075 29.8C189.373 29.6693 189.644 29.548 189.887 29.436L191.091 32.936C190.475 33.3093 189.607 33.6453 188.487 33.944C187.367 34.2427 186.069 34.392 184.595 34.392ZM206.231 26.608C206.231 27.7653 206.063 28.8293 205.727 29.8C205.391 30.752 204.906 31.5733 204.271 32.264C203.636 32.936 202.871 33.4587 201.975 33.832C201.098 34.2053 200.108 34.392 199.007 34.392C197.924 34.392 196.935 34.2053 196.039 33.832C195.162 33.4587 194.406 32.936 193.771 32.264C193.136 31.5733 192.642 30.752 192.287 29.8C191.932 28.8293 191.755 27.7653 191.755 26.608C191.755 25.4507 191.932 24.396 192.287 23.444C192.66 22.492 193.164 21.68 193.799 21.008C194.452 20.336 195.218 19.8133 196.095 19.44C196.991 19.0667 197.962 18.88 199.007 18.88C200.071 18.88 201.042 19.0667 201.919 19.44C202.815 19.8133 203.58 20.336 204.215 21.008C204.85 21.68 205.344 22.492 205.699 23.444C206.054 24.396 206.231 25.4507 206.231 26.608ZM201.975 26.608C201.975 25.32 201.714 24.312 201.191 23.584C200.687 22.8373 199.959 22.464 199.007 22.464C198.055 22.464 197.318 22.8373 196.795 23.584C196.272 24.312 196.011 25.32 196.011 26.608C196.011 27.896 196.272 28.9227 196.795 29.688C197.318 30.4347 198.055 30.808 199.007 30.808C199.959 30.808 200.687 30.4347 201.191 29.688C201.714 28.9227 201.975 27.896 201.975 26.608ZM208.623 19.776C209.332 19.5707 210.247 19.384 211.367 19.216C212.487 19.0293 213.663 18.936 214.895 18.936C216.145 18.936 217.181 19.104 218.003 19.44C218.843 19.7573 219.505 20.2147 219.991 20.812C220.476 21.4093 220.821 22.1187 221.027 22.94C221.232 23.7613 221.335 24.676 221.335 25.684V34H217.163V26.188C217.163 24.844 216.985 23.892 216.631 23.332C216.276 22.772 215.613 22.492 214.643 22.492C214.344 22.492 214.027 22.5107 213.691 22.548C213.355 22.5667 213.056 22.5947 212.795 22.632V34H208.623V19.776ZM224.271 19.776C224.98 19.5707 225.895 19.384 227.015 19.216C228.135 19.0293 229.311 18.936 230.543 18.936C231.794 18.936 232.83 19.104 233.651 19.44C234.491 19.7573 235.154 20.2147 235.639 20.812C236.124 21.4093 236.47 22.1187 236.675 22.94C236.88 23.7613 236.983 24.676 236.983 25.684V34H232.811V26.188C232.811 24.844 232.634 23.892 232.279 23.332C231.924 22.772 231.262 22.492 230.291 22.492C229.992 22.492 229.675 22.5107 229.339 22.548C229.003 22.5667 228.704 22.5947 228.443 22.632V34H224.271V19.776ZM239.219 26.748C239.219 25.4413 239.415 24.3027 239.807 23.332C240.218 22.3427 240.75 21.5213 241.403 20.868C242.057 20.2147 242.803 19.72 243.643 19.384C244.502 19.048 245.379 18.88 246.275 18.88C248.366 18.88 250.018 19.524 251.231 20.812C252.445 22.0813 253.051 23.9573 253.051 26.44C253.051 26.6827 253.042 26.9533 253.023 27.252C253.005 27.532 252.986 27.784 252.967 28.008H243.503C243.597 28.8667 243.998 29.548 244.707 30.052C245.417 30.556 246.369 30.808 247.563 30.808C248.329 30.808 249.075 30.7427 249.803 30.612C250.55 30.4627 251.157 30.2853 251.623 30.08L252.183 33.468C251.959 33.58 251.661 33.692 251.287 33.804C250.914 33.916 250.494 34.0093 250.027 34.084C249.579 34.1773 249.094 34.252 248.571 34.308C248.049 34.364 247.526 34.392 247.003 34.392C245.678 34.392 244.521 34.196 243.531 33.804C242.561 33.412 241.749 32.88 241.095 32.208C240.461 31.5173 239.985 30.7053 239.667 29.772C239.369 28.8387 239.219 27.8307 239.219 26.748ZM249.019 25.152C249.001 24.7973 248.935 24.452 248.823 24.116C248.73 23.78 248.571 23.4813 248.347 23.22C248.142 22.9587 247.871 22.744 247.535 22.576C247.218 22.408 246.817 22.324 246.331 22.324C245.865 22.324 245.463 22.408 245.127 22.576C244.791 22.7253 244.511 22.9307 244.287 23.192C244.063 23.4533 243.886 23.7613 243.755 24.116C243.643 24.452 243.559 24.7973 243.503 25.152H249.019ZM254.731 26.636C254.731 25.572 254.899 24.5733 255.235 23.64C255.589 22.688 256.093 21.8667 256.747 21.176C257.4 20.4667 258.193 19.9067 259.127 19.496C260.06 19.0853 261.124 18.88 262.319 18.88C263.103 18.88 263.821 18.9547 264.475 19.104C265.128 19.2347 265.763 19.4307 266.379 19.692L265.511 23.024C265.119 22.8747 264.689 22.744 264.223 22.632C263.756 22.52 263.233 22.464 262.655 22.464C261.423 22.464 260.499 22.8467 259.883 23.612C259.285 24.3773 258.987 25.3853 258.987 26.636C258.987 27.9613 259.267 28.988 259.827 29.716C260.405 30.444 261.404 30.808 262.823 30.808C263.327 30.808 263.868 30.7613 264.447 30.668C265.025 30.5747 265.557 30.4253 266.043 30.22L266.631 33.636C266.145 33.8413 265.539 34.0187 264.811 34.168C264.083 34.3173 263.28 34.392 262.403 34.392C261.059 34.392 259.901 34.196 258.931 33.804C257.96 33.3933 257.157 32.8427 256.523 32.152C255.907 31.4613 255.449 30.6493 255.151 29.716C254.871 28.764 254.731 27.7373 254.731 26.636ZM268.451 15.604L272.623 14.932V19.272H277.635V22.744H272.623V27.924C272.623 28.8013 272.772 29.5013 273.071 30.024C273.388 30.5467 274.013 30.808 274.947 30.808C275.395 30.808 275.852 30.7707 276.319 30.696C276.804 30.6027 277.243 30.4813 277.635 30.332L278.223 33.58C277.719 33.7853 277.159 33.9627 276.543 34.112C275.927 34.2613 275.171 34.336 274.275 34.336C273.136 34.336 272.193 34.1867 271.447 33.888C270.7 33.5707 270.103 33.1413 269.655 32.6C269.207 32.04 268.889 31.368 268.703 30.584C268.535 29.8 268.451 28.932 268.451 27.98V15.604Z" fill="#2B2A29"/>
</svg>
