<svg xmlns="http://www.w3.org/2000/svg" viewBox="0 0 143.44 143.44"><defs><style>.cls-1{fill:#005293;}.cls-2{fill:#fecb00;}</style></defs><title>yellow-on-blue</title><g id="Layer_2" data-name="Layer 2"><g id="svg4704"><g id="layer1"><g id="g12"><g id="g14"><g id="g20"><path id="path22" class="cls-1" d="M143.44,71.72A71.72,71.72,0,1,1,71.72,0a71.72,71.72,0,0,1,71.72,71.72"/></g><g id="g4512"><g id="g24"><path id="path26" class="cls-2" d="M103.24,36a19.41,19.41,0,0,0-9.07-12.35A19.43,19.43,0,0,0,79.1,20.92c-4.89,1.06-9.3,4.74-12.3,9.54L53,52.51l-2,3.25q-4.5,7.2-2.62,14.56a17.19,17.19,0,0,0,1.48,4l8.91-14.25.08-.15,1.73-2.76h0l13.74-22a12.94,12.94,0,0,1,7.26-6c2.89-.85,5.52-.18,8.2,1.5s4.43,3.74,4.93,6.71a12.61,12.61,0,0,1-2.07,9.21L91.2,48.91h0l-14,22.47A12.12,12.12,0,0,1,70,77.1a9.91,9.91,0,0,1-2.19.4L63.15,85a17.75,17.75,0,0,0,9.36.39q7.32-1.61,11.83-8.8l14.4-23,1.42-2.26c3-4.8,4.34-10.4,3.08-15.31"/></g><g id="g28"><path id="path30" class="cls-2" d="M95.08,73.12a18,18,0,0,0-1.47-4L84.7,83.37a1.19,1.19,0,0,0-.09.15l-1.72,2.75h0l-13.74,22a12.92,12.92,0,0,1-7.26,6c-2.88.85-5.51.18-8.2-1.49S49.26,109,48.75,106a12.7,12.7,0,0,1,2.08-9.22l1.41-2.26h0L66.29,72.06a12.22,12.22,0,0,1,7.11-5.72,10.12,10.12,0,0,1,2.19-.4l4.7-7.52A17.52,17.52,0,0,0,70.94,58q-7.34,1.59-11.84,8.8l-14.4,23-1.41,2.26c-3,4.8-4.34,10.4-3.09,15.3a19.46,19.46,0,0,0,9.07,12.35,19.4,19.4,0,0,0,15.07,2.75c4.89-1.07,9.3-4.75,12.31-9.55l13.78-22h0l2-3.26q4.5-7.2,2.62-14.56"/></g></g></g></g></g></g></g></svg>