<?xml version="1.0" encoding="utf-8"?>
<!-- Generator: Adobe Illustrator 16.0.0, SVG Export Plug-In . SVG Version: 6.00 Build 0)  -->
<!DOCTYPE svg PUBLIC "-//W3C//DTD SVG 1.1//EN" "http://www.w3.org/Graphics/SVG/1.1/DTD/svg11.dtd">
<svg version="1.1" id="Calque_1" xmlns="http://www.w3.org/2000/svg" xmlns:xlink="http://www.w3.org/1999/xlink" x="0px" y="0px"
	 width="280px" height="169.603px" viewBox="0 0 280 169.603" enable-background="new 0 0 280 169.603" xml:space="preserve">
<g>
	<path fill="#FFFFFF" d="M262.257,70.085c-1.346-0.244-2.722-5.659-4.101-5.923c-2.489-6.104-4.97-17.103-7.471-23.186
		c5.288-1.547,10.555-0.741,14.561-2.617c0,0-2.713-7.375-43.319-7.46c-5.276-6.57-22.591-19.349-27.063-17.378
		c-0.148,0.244-1.102,1.071,5.765,6.157v0.37c-23.503,6.624-8.424,21.787-16.425,40.702c-5.774,13.659-36.188,21.744-50.047,9.717
		c-0.996-4.63-2.002-9.219-2.988-13.839c-1.802-5.436-5.001-11.031-8.223-15.301c-3.783-5.055-10.936-12.197-16.795-14.941
		c-5.447-0.72-13.733,4.281-19.201,3.529c-9.293-2.894-17.898-6.984-25.39-11.953C56.324,14.506,47.625,2.606,41.754,2.648
		c-5.85,0.043-0.901,15.842,10.458,24.648c-6.782-2.014-15.757-7.502-21.235-10.925c-1.134-0.72-2.585-0.731-3.73-0.031
		c-1.155,0.699-1.822,1.981-1.717,3.327c0.773,10.173,9.961,17.029,14.761,23.313c-3.508-1.971-13.988-8.106-18.311-5.214
		c0,0-5.076,2.808,9.346,18.682c-1.738-0.879-12.122,2.766,7.46,16.414c1.505,1.112,1.96,2.967,4.25,7.471
		c11.158,15.375,45.607,5.075,45.607,5.075c-4.567,1.272-7.715,9.272-8.944,13.828C63.392,95.644,4.677,85.736,2.77,99.575
		c0,0.371,0,4.736,16.436,2.226c0,0.159-10.448,2.341-10.141,5.563c1.017,4.387,12.016,4.642,18.713,4.896
		c0,0.126-8.064,7.27,15.672,7.491c16.308-0.222,27.254-2.491,42.937-1.112c0.021,0.021,0.424,0.381,0.752,0.688l-43.785,22.561
		c-3.963,0.773-8.478-2.979-11.709,1.409c-1.791,3.581,6.083,4.186,6.05,4.556c-2.32,2.533-6.4,2.3-8.244,5.426
		c-2.564,4.388,14.348,7.778,18.184,1.992c1.95-2.872-0.816-5.521,0.943-8.139c1.091-1.6,28.589-16.286,43.943-24.064
		c2.438,1.42,5.383,2.871,9.188,3.825l-37.957,22.391c-3.899,1.059-8.667-2.374-11.592,2.225c-1.537,3.698,6.358,3.751,6.358,4.133
		c-2.141,2.691-6.231,2.734-7.841,5.977c-2.247,4.567,14.866,6.771,18.29,0.699c1.738-3-1.198-5.437,0.381-8.171
		c1.6-2.775,38.412-24.339,42.068-25.801c25.909,1.652,56.914-14.295,57.031-35.52c4.927-1.251,9.516-0.88,13.458-2.628
		c15.459-6.824,8.795-32.479,17.664-45.883c14.252,2.109,25.135-2.447,38.477-1.854c0,0-4.229,7.778-4.504,16.457
		c-20.801-0.233-29.724,22.21-20.165,39.959c6.749,12.536,24.933,16.85,41.093,11.169c12.473-4.377,19.995-15.323,22.243-21.946
		C278.576,79.866,275.726,69.004,262.257,70.085z"/>
</g>
</svg>
